<svg width="600" height="600" viewBox="0 0 600 600" fill="none" xmlns="http://www.w3.org/2000/svg">
<g clip-path="url(#clip0_9_382)">
<path d="M478.308 56.8255C466.866 70.9755 449.041 82.0843 423.904 90.7318C417.475 92.943 393.464 99.1903 370.546 104.616C316.947 117.302 251.86 135.226 238.58 140.958C203.704 156.01 175.026 173.627 150.311 195.177C123.011 218.983 100.293 261.614 91.5761 305.396C83.2199 347.36 87.2038 392.506 102.631 430.666C120.282 474.33 141.776 500.958 175.681 521.165C206.398 539.472 236.595 546.411 276.258 544.278C287.463 543.676 294.357 542.378 312.037 537.542C331.363 532.255 335.708 530.61 349.009 523.549C365.98 514.538 380.078 504.048 394.172 489.945C403.862 480.248 403.592 479.209 393.314 486.64C390.211 488.884 381.63 494.165 374.246 498.377C362.022 505.349 358.806 506.591 338.311 512.26C317.762 517.943 314.467 518.51 300.46 518.76C253.883 519.594 214.812 501.923 183.962 466.071C168.795 448.444 154.477 421.072 148.617 398.494C137.673 356.334 144.692 307.634 167.582 266.914C183.714 238.216 202.723 219.669 235.883 200.276C263.786 183.958 293.232 174.358 405.173 145.073C447.676 133.955 452.193 132.548 458.496 128.474C483.448 112.342 494.405 84.7863 486.314 58.5169L483.727 50.1213L478.308 56.8255Z" fill="white"/>
<path d="M536.558 126.112C514.917 162.185 491.11 189.206 466.297 205.859C453.506 214.443 430.077 224.828 412.587 229.666C397.179 233.927 374.208 237.113 353.723 237.831C320.656 238.989 281.154 247.908 261.901 258.564C233.613 274.221 214.278 301.333 207.491 334.859C203.585 354.154 203.987 386.481 208.419 409.58L210.734 421.649L242.663 413.538C269.701 406.668 276.324 405.405 285.907 405.281C304.372 405.044 318.31 411.207 320.774 420.698C323.834 432.485 313.644 446.501 284.231 470.961C281.76 473.016 282.144 473.078 287.943 471.558C297.127 469.151 339.254 453.481 347.034 449.576C377.683 434.196 397.739 412.656 424.314 366.577C430.027 356.671 438.296 340.911 442.69 331.556C450.6 314.713 450.62 314.636 444.691 323.86C424 356.047 409.735 372.612 390.214 387.117C381.13 393.867 362.062 403.807 353.827 406.085L347.335 407.88L345.415 398.004C343.709 389.232 342.91 387.431 338.284 381.923C331.799 374.203 321.509 368.729 308.668 366.171C300.205 364.485 297.509 364.569 289.55 366.771L280.287 369.333L279.432 363.504C276.586 344.111 287.379 323.639 308.86 307.678C316.856 301.739 318.345 301.125 337.918 295.7C354.481 291.11 361.915 289.717 375.623 288.637C389.42 287.548 396.9 286.139 414.596 281.295C435.81 275.489 436.91 275.04 449.748 266.977C488.953 242.353 514.044 204.848 537.035 136.509C540.563 126.019 543.467 116.776 543.488 115.968C543.509 115.16 540.391 119.725 536.558 126.112Z" fill="url(#paint0_linear_9_382)"/>
</g>
<defs>
<linearGradient id="paint0_linear_9_382" x1="351.218" y1="169.039" x2="424.45" y2="433.804" gradientUnits="userSpaceOnUse">
<stop stop-color="#2AEFAF"/>
<stop offset="1" stop-color="#04DFB5"/>
</linearGradient>
<clipPath id="clip0_9_382">
<rect width="600" height="600" fill="white"/>
</clipPath>
</defs>
</svg>
