<svg width="90" height="22" viewBox="0 0 90 22" fill="none" xmlns="http://www.w3.org/2000/svg">
<g clip-path="url(#clip0_9_74)">
<g clip-path="url(#clip1_9_74)">
<path d="M18.9267 0.269758C18.4745 0.828967 17.7701 1.26799 16.7766 1.60974C16.5226 1.69713 15.5736 1.94402 14.6679 2.15843C12.5497 2.65979 9.97746 3.36816 9.4526 3.59467C8.07433 4.18953 6.94097 4.88575 5.96423 5.73743C4.88535 6.67822 3.98751 8.36299 3.64302 10.0933C3.31278 11.7517 3.47023 13.5358 4.07993 15.044C4.77748 16.7695 5.62694 17.8219 6.96685 18.6205C8.18079 19.3439 9.37416 19.6182 10.9416 19.5339C11.3845 19.5101 11.6569 19.4588 12.3556 19.2677C13.1194 19.0587 13.2911 18.9937 13.8168 18.7147C14.4875 18.3586 15.0446 17.944 15.6016 17.3867C15.9846 17.0034 15.9739 16.9624 15.5677 17.256C15.4451 17.3447 15.106 17.5534 14.8141 17.7199C14.331 17.9954 14.2039 18.0445 13.394 18.2685C12.5819 18.4931 12.4517 18.5155 11.8981 18.5254C10.0574 18.5584 8.51332 17.86 7.29413 16.4431C6.6947 15.7465 6.12888 14.6648 5.89727 13.7725C5.46477 12.1064 5.74217 10.1817 6.64679 8.57245C7.28431 7.4383 8.03556 6.70534 9.34605 5.93894C10.4488 5.29406 11.6125 4.91463 16.0364 3.75732C17.7161 3.31793 17.8946 3.26233 18.1437 3.10131C19.1298 2.46376 19.5628 1.37477 19.2431 0.336606L19.1408 0.00480959L18.9267 0.269758Z" fill="white"/>
<path d="M21.2288 3.00791C20.3736 4.43354 19.4327 5.50141 18.4521 6.15951C17.9466 6.49876 17.0207 6.90917 16.3295 7.10036C15.7206 7.26878 14.8128 7.39468 14.0032 7.42307C12.6964 7.46881 11.1353 7.8213 10.3744 8.24242C9.25646 8.86118 8.49234 9.93268 8.22411 11.2576C8.06975 12.0201 8.08563 13.2977 8.26078 14.2106L8.35228 14.6876L9.61409 14.367C10.6826 14.0955 10.9444 14.0456 11.3231 14.0407C12.0528 14.0313 12.6037 14.2749 12.701 14.65C12.822 15.1158 12.4193 15.6697 11.2569 16.6364C11.1592 16.7176 11.1744 16.72 11.4036 16.66C11.7665 16.5648 13.4314 15.9455 13.7388 15.7912C14.9501 15.1834 15.7427 14.3321 16.7929 12.5111C17.0187 12.1196 17.3455 11.4968 17.5192 11.1271C17.8318 10.4614 17.8326 10.4584 17.5983 10.8229C16.7805 12.095 16.2168 12.7496 15.4453 13.3228C15.0863 13.5896 14.3328 13.9824 14.0073 14.0725L13.7507 14.1434L13.6749 13.7531C13.6074 13.4064 13.5759 13.3353 13.393 13.1176C13.1368 12.8125 12.7301 12.5961 12.2226 12.4951C11.8882 12.4284 11.7816 12.4318 11.4671 12.5188L11.101 12.62L11.0672 12.3896C10.9548 11.6232 11.3813 10.8142 12.2302 10.1834C12.5462 9.94869 12.6051 9.92443 13.3786 9.71004C14.0332 9.52866 14.3269 9.4736 14.8687 9.4309C15.4139 9.38789 15.7096 9.33221 16.4089 9.14076C17.2473 8.91129 17.2907 8.89355 17.7981 8.57492C19.3475 7.60177 20.3391 6.11956 21.2477 3.4188C21.3871 3.00426 21.5019 2.63896 21.5027 2.60704C21.5035 2.57511 21.3803 2.75552 21.2288 3.00791Z" fill="url(#paint0_linear_9_74)"/>
</g>
</g>
<path d="M83.4375 5.9718L85.2722 9.94358L87.1371 5.9718H89.2036L86.25 11.3549L89.2843 16.8791H87.2379L85.3125 12.7863L83.377 16.8791H81.3206L84.3548 11.3549L81.4012 5.9718H83.4375Z" fill="white"/>
<path d="M77.5707 15.0141V9.09675C77.5707 8.66665 77.5034 8.32054 77.369 8.05845C77.2413 7.79635 77.0465 7.60482 76.7844 7.48385C76.529 7.36288 76.2064 7.3024 75.8166 7.3024C75.4403 7.3024 75.1143 7.37968 74.8388 7.53425C74.57 7.68882 74.3616 7.8938 74.2138 8.14917C74.0727 8.40455 74.0021 8.68681 74.0021 8.99595H72.2178C72.2178 8.60616 72.3018 8.21974 72.4698 7.83667C72.6446 7.45361 72.8932 7.10751 73.2158 6.79837C73.5384 6.48251 73.9248 6.23385 74.3751 6.0524C74.8321 5.86423 75.3428 5.77014 75.9073 5.77014C76.5794 5.77014 77.1741 5.88103 77.6916 6.1028C78.2091 6.31786 78.6157 6.67068 78.9114 7.16127C79.2071 7.65186 79.3549 8.30374 79.3549 9.11692V14.5C79.3549 14.8629 79.3818 15.2493 79.4356 15.6593C79.4961 16.0692 79.5801 16.422 79.6876 16.7177V16.879H77.8428C77.7555 16.664 77.6883 16.3783 77.6412 16.0222C77.5942 15.6593 77.5707 15.3232 77.5707 15.0141ZM77.8529 10.2661L77.8731 11.5766H76.6332C76.2098 11.5766 75.8233 11.6236 75.4739 11.7177C75.1311 11.8118 74.8354 11.9496 74.5868 12.131C74.3381 12.3058 74.1466 12.5242 74.0122 12.7863C73.8845 13.0484 73.8207 13.3474 73.8207 13.6834C73.8207 14.1203 73.8811 14.4697 74.0021 14.7318C74.1231 14.9872 74.3045 15.172 74.5465 15.2863C74.7884 15.4005 75.0942 15.4576 75.4638 15.4576C75.9141 15.4576 76.3106 15.3535 76.6533 15.1451C76.9961 14.9368 77.2615 14.6848 77.4497 14.3891C77.6446 14.0934 77.7353 13.8179 77.7219 13.5625L78.115 14.3992C78.0881 14.6613 78.0008 14.9469 77.8529 15.256C77.7118 15.5584 77.5135 15.8508 77.2582 16.133C77.0028 16.4086 76.7004 16.6371 76.3509 16.8185C76.0082 16.9933 75.6217 17.0806 75.1916 17.0806C74.5599 17.0806 74.0055 16.9597 73.5283 16.7177C73.0579 16.4758 72.6916 16.1196 72.4295 15.6492C72.1674 15.1787 72.0364 14.5974 72.0364 13.9052C72.0364 13.381 72.1271 12.8972 72.3086 12.4536C72.49 12.0101 72.7588 11.627 73.115 11.3044C73.4712 10.9751 73.9181 10.7197 74.4557 10.5383C75.0001 10.3568 75.6284 10.2661 76.3408 10.2661H77.8529Z" fill="white"/>
<path d="M58.4678 8.13909V16.879H56.6936V5.97175H58.367L58.4678 8.13909ZM58.1049 11.0121L57.2783 10.9818C57.2716 10.2359 57.3455 9.54702 57.5001 8.9153C57.6546 8.27686 57.8865 7.72243 58.1956 7.252C58.5115 6.78157 58.9046 6.41866 59.3751 6.16329C59.8522 5.90119 60.4066 5.77014 61.0384 5.77014C61.455 5.77014 61.8415 5.84407 62.1976 5.99192C62.5605 6.13304 62.8764 6.35818 63.1452 6.66732C63.414 6.97646 63.6224 7.37296 63.7702 7.85684C63.9248 8.34071 64.0021 8.92538 64.0021 9.61087V16.879H62.2178V9.70159C62.2178 9.13036 62.1405 8.67337 61.9859 8.33063C61.8381 7.98788 61.6264 7.73923 61.3509 7.58466C61.0753 7.42337 60.746 7.34272 60.363 7.34272C59.9261 7.34272 59.5599 7.44017 59.2642 7.63506C58.9752 7.82995 58.7433 8.09877 58.5686 8.44151C58.4006 8.78425 58.2796 9.1774 58.2057 9.62095C58.1385 10.0578 58.1049 10.5215 58.1049 11.0121ZM63.9819 9.98385L62.7924 10.3669C62.7857 9.7688 62.8596 9.1942 63.0142 8.64313C63.1687 8.09205 63.3972 7.60146 63.6996 7.17135C64.0088 6.74124 64.3919 6.40186 64.8488 6.15321C65.3058 5.89783 65.8367 5.77014 66.4416 5.77014C66.9389 5.77014 67.3791 5.84743 67.7621 6.002C68.1452 6.15657 68.4678 6.39514 68.7299 6.71772C68.9987 7.03358 69.2003 7.44017 69.3347 7.93748C69.4691 8.43479 69.5363 9.02619 69.5363 9.71167V16.879H67.7521V9.69151C67.7521 9.07995 67.6748 8.60616 67.5202 8.27014C67.3724 7.9274 67.1607 7.68882 66.8851 7.55442C66.6096 7.41329 66.2803 7.34272 65.8972 7.34272C65.5881 7.34272 65.3126 7.41329 65.0706 7.55442C64.8354 7.69554 64.6372 7.89044 64.4759 8.13909C64.3146 8.38103 64.1902 8.65993 64.1029 8.97579C64.0222 9.29165 63.9819 9.62767 63.9819 9.98385Z" fill="white"/>
<path d="M50.6049 15.75L53.0344 5.9718H54.9295L51.3307 18.5625C51.2434 18.8313 51.1258 19.1203 50.9779 19.4295C50.8368 19.7453 50.6553 20.0444 50.4336 20.3266C50.2118 20.6089 49.9463 20.8374 49.6372 21.0121C49.3281 21.1936 48.9652 21.2843 48.5485 21.2843C48.4208 21.2843 48.2561 21.2641 48.0545 21.2238C47.8596 21.1835 47.7185 21.1499 47.6311 21.123V19.6109C47.6715 19.6176 47.7353 19.6244 47.8227 19.6311C47.91 19.6445 47.9739 19.6512 48.0142 19.6512C48.3637 19.6512 48.6594 19.5941 48.9013 19.4799C49.15 19.3723 49.3617 19.1875 49.5364 18.9254C49.7111 18.6701 49.859 18.3172 49.9799 17.867L50.6049 15.75ZM49.0324 5.9718L51.1997 14.4395L51.6634 16.4053L50.3932 17.0908L47.0868 5.9718H49.0324Z" fill="white"/>
<path d="M43.3872 7.68546V16.879H41.6029V5.97175H43.3267L43.3872 7.68546ZM46.0989 5.91127L46.109 7.64514C45.9611 7.61154 45.8267 7.59138 45.7057 7.58466C45.5915 7.57122 45.4571 7.5645 45.3025 7.5645C44.9665 7.5645 44.6708 7.6317 44.4154 7.76611C44.1667 7.90052 43.9517 8.08869 43.7702 8.33063C43.5888 8.57256 43.4443 8.86154 43.3368 9.19756C43.2292 9.52686 43.1553 9.88976 43.115 10.2863L42.6513 10.5887C42.6513 9.93009 42.7017 9.31181 42.8025 8.73385C42.91 8.15589 43.0747 7.64514 43.2965 7.20159C43.5182 6.75132 43.8005 6.40186 44.1432 6.15321C44.4927 5.89783 44.9094 5.77014 45.3932 5.77014C45.5008 5.77014 45.6318 5.78694 45.7864 5.82054C45.9477 5.84743 46.0518 5.87767 46.0989 5.91127Z" fill="white"/>
<path d="M38.8408 9.57056V15.0444C38.6795 15.2594 38.4342 15.5282 38.1049 15.8508C37.7823 16.1734 37.3287 16.459 36.744 16.7077C36.1593 16.9563 35.3932 17.0806 34.4456 17.0806C33.6862 17.0806 32.9907 16.953 32.3589 16.6976C31.7339 16.4422 31.1929 16.0591 30.7359 15.5484C30.2857 15.0309 29.9362 14.3891 29.6876 13.623C29.4389 12.8501 29.3146 11.9462 29.3146 10.9113V8.15927C29.3146 7.13105 29.4187 6.23051 29.6271 5.45766C29.8354 4.68481 30.1445 4.04301 30.5545 3.53226C30.9712 3.02151 31.4853 2.63844 32.0968 2.38306C32.7151 2.12769 33.4342 2 34.2541 2C35.2017 2 36.0081 2.17809 36.6734 2.53427C37.3388 2.89046 37.8529 3.40457 38.2158 4.07661C38.5854 4.74866 38.7937 5.55511 38.8408 6.49597H36.9859C36.9389 5.89113 36.8112 5.37366 36.6029 4.94355C36.3945 4.50672 36.0988 4.17406 35.7158 3.94556C35.3327 3.71035 34.8455 3.59274 34.2541 3.59274C33.6896 3.59274 33.2124 3.68683 32.8226 3.875C32.4329 4.06317 32.1136 4.34543 31.865 4.72177C31.623 5.09812 31.445 5.57191 31.3307 6.14315C31.2232 6.71438 31.1694 7.3797 31.1694 8.13911V10.9113C31.1694 11.6909 31.2467 12.3696 31.4013 12.9476C31.5558 13.5255 31.7743 14.0027 32.0565 14.379C32.3455 14.7554 32.6916 15.0376 33.0948 15.2258C33.498 15.4073 33.9517 15.498 34.4557 15.498C35.0269 15.498 35.4772 15.4375 35.8065 15.3165C36.1358 15.1956 36.3878 15.0578 36.5626 14.9032C36.744 14.7487 36.8885 14.6243 36.996 14.5302V11.1431H34.3045V9.57056H38.8408Z" fill="white"/>
<defs>
<linearGradient id="paint0_linear_9_74" x1="13.9042" y1="4.70441" x2="16.7983" y2="15.1679" gradientUnits="userSpaceOnUse">
<stop stop-color="#2AEFAF"/>
<stop offset="1" stop-color="#04DFB5"/>
</linearGradient>
<clipPath id="clip0_9_74">
<rect width="19.76" height="19.76" fill="white" transform="translate(2)"/>
</clipPath>
<clipPath id="clip1_9_74">
<rect width="18.525" height="19.76" fill="white" transform="translate(3.23486)"/>
</clipPath>
</defs>
</svg>
