<svg width="500" height="500" viewBox="0 0 500 500" fill="none" xmlns="http://www.w3.org/2000/svg">
<g clip-path="url(#clip0_9_281)">
<path d="M428.308 6.82533C416.866 20.9754 399.041 32.0842 373.904 40.7316C367.475 42.9429 343.464 49.1902 320.546 54.6156C266.947 67.3019 201.86 85.2263 188.58 90.9578C153.704 106.01 125.026 123.627 100.311 145.177C73.0115 168.983 50.2928 211.614 41.5762 255.396C33.2199 297.36 37.2038 342.505 52.6314 380.666C70.2821 424.33 91.7764 450.958 125.681 471.165C156.398 489.472 186.595 496.411 226.258 494.278C237.463 493.676 244.357 492.377 262.037 487.542C281.363 482.255 285.708 480.61 299.009 473.549C315.98 464.538 330.078 454.048 344.172 439.945C353.862 430.248 353.592 429.209 343.314 436.64C340.211 438.884 331.63 444.165 324.246 448.377C312.022 455.349 308.806 456.591 288.311 462.259C267.762 467.943 264.467 468.509 250.46 468.76C203.883 469.594 164.812 451.923 133.962 416.071C118.795 398.444 104.477 371.072 98.6167 348.494C87.6731 306.334 94.6923 257.634 117.582 216.914C133.714 188.215 152.723 169.669 185.883 150.276C213.786 133.958 243.232 124.357 355.173 95.0733C397.676 83.9551 402.193 82.5483 408.496 78.4738C433.448 62.3415 444.405 34.7862 436.314 8.51681L433.727 0.121161L428.308 6.82533Z" fill="white"/>
<path d="M486.558 76.1118C464.917 112.185 441.11 139.206 416.297 155.859C403.506 164.443 380.077 174.828 362.586 179.666C347.179 183.927 324.208 187.113 303.723 187.831C270.656 188.989 231.154 197.908 211.901 208.564C183.613 224.221 164.278 251.333 157.491 284.859C153.585 304.154 153.987 336.481 158.419 359.58L160.734 371.649L192.663 363.538C219.701 356.668 226.324 355.405 235.907 355.281C254.372 355.044 268.31 361.207 270.774 370.698C273.833 382.485 263.644 396.501 234.231 420.961C231.76 423.016 232.144 423.078 237.943 421.558C247.127 419.151 289.254 403.481 297.034 399.576C327.683 384.196 347.739 362.656 374.314 316.577C380.027 306.671 388.296 290.911 392.69 281.556C400.6 264.713 400.62 264.636 394.691 273.86C374 306.047 359.735 322.612 340.214 337.117C331.13 343.867 312.062 353.807 303.826 356.085L297.335 357.88L295.415 348.004C293.709 339.232 292.91 337.431 288.284 331.923C281.799 324.203 271.508 318.729 258.668 316.171C250.205 314.485 247.509 314.569 239.55 316.771L230.287 319.333L229.432 313.504C226.586 294.111 237.379 273.639 258.86 257.678C266.856 251.739 268.345 251.125 287.918 245.7C304.481 241.11 311.915 239.717 325.623 238.637C339.42 237.548 346.9 236.139 364.596 231.295C385.81 225.489 386.91 225.04 399.747 216.977C438.953 192.353 464.044 154.848 487.035 86.5086C490.563 76.0192 493.467 66.776 493.488 65.9681C493.509 65.1603 490.391 69.7252 486.558 76.1118Z" fill="url(#paint0_linear_9_281)"/>
</g>
<defs>
<linearGradient id="paint0_linear_9_281" x1="301.218" y1="119.039" x2="374.45" y2="383.804" gradientUnits="userSpaceOnUse">
<stop stop-color="#2AEFAF"/>
<stop offset="1" stop-color="#04DFB5"/>
</linearGradient>
<clipPath id="clip0_9_281">
<rect width="500" height="500" fill="white"/>
</clipPath>
</defs>
</svg>
